<?xml version="1.0" encoding="UTF-8" standalone="no"?>
<svg
   xmlns:dc="http://purl.org/dc/elements/1.1/"
   xmlns:cc="http://creativecommons.org/ns#"
   xmlns:rdf="http://www.w3.org/1999/02/22-rdf-syntax-ns#"
   xmlns:svg="http://www.w3.org/2000/svg"
   xmlns="http://www.w3.org/2000/svg"
   xmlns:sodipodi="http://sodipodi.sourceforge.net/DTD/sodipodi-0.dtd"
   xmlns:inkscape="http://www.inkscape.org/namespaces/inkscape"
   version="1.1"
   width="254"
   height="66"
   id="svg3808"
   viewBox="0 0 254 65.999999"
   sodipodi:docname="reznorganizer-logo.svg"
   inkscape:version="0.92.4 (5da689c313, 2019-01-14)">
  <metadata
     id="metadata3814">
    <rdf:RDF>
      <cc:Work
         rdf:about="">
        <dc:format>image/svg+xml</dc:format>
        <dc:type
           rdf:resource="http://purl.org/dc/dcmitype/StillImage" />
        <dc:title></dc:title>
      </cc:Work>
    </rdf:RDF>
  </metadata>
  <defs
     id="defs3812" />
  <sodipodi:namedview
     pagecolor="#ffffff"
     bordercolor="#666666"
     borderopacity="1"
     objecttolerance="10"
     gridtolerance="10"
     guidetolerance="10"
     inkscape:pageopacity="0"
     inkscape:pageshadow="2"
     inkscape:window-width="1920"
     inkscape:window-height="1021"
     id="namedview3810"
     showgrid="false"
     inkscape:zoom="0.56064347"
     inkscape:cx="1032.4123"
     inkscape:cy="300.45744"
     inkscape:window-x="-4"
     inkscape:window-y="-4"
     inkscape:window-maximized="1"
     inkscape:current-layer="svg3808"
     fit-margin-top="0"
     fit-margin-left="0"
     fit-margin-right="0"
     fit-margin-bottom="0" />
  <path
     d="M 0,0 H 254 V 66 H 0 Z"
     style="fill:none;stroke-width:1.27426839"
     id="path3780"
     inkscape:connector-curvature="0" />
  <path
     d="M 66.371658,13.29713 21.750377,3.92644 C 20.287365,3.61921 18.960074,4.48798 18.653366,5.95349 L 8.9409096,52.36082 c -0.3067089,1.46551 0.5605804,2.79507 2.0235924,3.1023 l 44.499437,9.34506 c 1.463012,0.30723 2.790303,-0.56154 3.097012,-2.02705 L 68.273407,16.3738 c 0.306582,-1.46551 -0.560581,-2.79507 -1.901749,-3.07667 z"
     style="fill:#ff6600;fill-rule:evenodd;stroke-width:1.27426839"
     id="path3782"
     inkscape:connector-curvature="0" />
  <path
     d="m 64.01411,17.26426 -8.715684,41.6445 c -0.204473,0.97692 -1.089333,1.55619 -2.064716,1.35136 L 23.364261,53.9874 15.366651,41.726 22.318726,8.50803 C 22.523198,7.53112 23.408058,6.95185 24.383441,7.1568 l 38.403577,8.06484 c 0.827822,0.30137 1.405973,1.18762 1.227092,2.04262 z"
     style="fill:#f2f2f2;fill-rule:evenodd;stroke-width:1.27426839"
     id="path3784"
     inkscape:connector-curvature="0" />
  <path
     d="m 24.974579,46.29356 c 0.306709,-1.46551 -0.560453,-2.79507 -2.023465,-3.1023 l -7.558872,-1.58744 7.99761,12.26154 c 1.27e-4,-1.3e-4 1.584727,-7.5718 1.584727,-7.5718 z"
     style="fill:#cccccc;fill-rule:evenodd;stroke-width:1.27426839"
     id="path3786"
     inkscape:connector-curvature="0" />
  <path
     d="M 55.383347,7.41978 52.579294,6.83081 C 52.46318,6.16903 52.128971,5.33379 51.621609,4.71742 50.754445,3.38773 49.322881,2.32229 47.616056,1.96379 L 43.227147,1.04209 C 40.666782,0.5044 38.140028,1.63118 36.852206,3.52815 L 34.048154,2.93919 c -1.341169,-0.2816 -2.668459,0.58717 -2.949577,1.9305 l -0.996772,4.76283 c -0.28112,1.34347 0.586044,2.67289 1.927085,2.95462 l 21.213477,4.45482 c 1.34104,0.28173 2.668331,-0.58704 2.94945,-1.93037 l 0.996772,-4.76296 C 57.591678,9.03094 56.724516,7.70138 55.383347,7.41978 Z m -11.24562,0.82553 c -1.341042,-0.2816 -2.208204,-1.61116 -1.927086,-2.95449 0.281118,-1.34333 1.608408,-2.2121 2.94945,-1.93051 1.341167,0.28173 2.208331,1.61129 1.927213,2.95462 -0.281247,1.34333 -1.608409,2.21211 -2.949577,1.93038 z"
     style="fill:#808080;fill-rule:evenodd;stroke-width:1.27426839"
     id="path3788"
     inkscape:connector-curvature="0" />
  <path
     d="m 45.444518,43.96271 -2.697996,-4.13636 c 1.622286,-1.06174 2.711493,-2.6178 3.120438,-4.5719 0.07677,-0.36641 0.153418,-0.73269 0.10822,-1.12474 l 4.907983,0.26578 c -0.08632,4.0615 -2.046637,7.34708 -5.438645,9.56722 z"
     style="fill:#808080;fill-rule:evenodd;stroke-width:1.27426839"
     id="path3790"
     inkscape:connector-curvature="0" />
  <path
     d="m 50.908754,34.27331 -4.81173,-0.11797 c 0.119934,-2.39728 -0.934132,-4.65836 -2.680299,-6.04519 l 3.08899,-3.81345 c 3.055887,2.42676 4.611458,5.94062 4.403039,9.97661 z"
     style="fill:#b3b3b3;fill-rule:evenodd;stroke-width:1.27426839"
     id="path3792"
     inkscape:connector-curvature="0" />
  <path
     d="m 46.383744,24.27107 -3.08899,3.81358 c -0.87302,-0.69341 -1.919193,-1.16797 -3.138389,-1.42407 -1.219071,-0.25596 -2.36748,-0.24219 -3.444973,0.0415 l -1.299917,-4.73514 c 4.04082,-1.06378 7.820129,-0.27012 10.972269,2.30418 z"
     style="fill:#e6e6e6;fill-rule:evenodd;stroke-width:1.27426839"
     id="path3794"
     inkscape:connector-curvature="0" />
  <path
     d="m 45.444518,43.96271 c -5.604029,3.6678 -13.162901,2.08037 -16.824442,-3.53325 -3.661539,-5.61361 -2.076811,-13.18541 3.52722,-16.85321 1.179729,-0.77209 2.160969,-1.20355 3.507867,-1.5581 l 1.299917,4.73515 c -2.57208,0.73473 -4.642526,2.72225 -5.23048,5.53123 -0.817892,3.90794 1.661883,7.87099 5.685132,8.71592 1.950512,0.40964 3.958317,-0.0612 5.433042,-1.02642 z"
     style="fill:#ff6600;fill-rule:evenodd;stroke-width:1.27426839"
     id="path3796"
     inkscape:connector-curvature="0" />
  <path
     d="m 79.79569,33.5428 c -0.604889,0 -1.068581,0.15367 -1.391586,0.46065 -0.32237,0.30724 -0.483682,0.83536 -0.483682,1.58451 v 4.86383 H 75.2787 v -9.04586 h 2.54076 v 0.69991 c 0.161311,-0.15954 0.356489,-0.30697 0.584644,-0.44216 0.188303,-0.1107 0.413529,-0.21183 0.67555,-0.30404 0.262401,-0.0923 0.547849,-0.13813 0.857105,-0.13813 0.161438,0 0.399904,0.006 0.715781,0.0185 0.31613,0.0127 0.588209,0.0491 0.816617,0.11057 v 2.37663 c -0.322624,-0.0737 -0.648557,-0.12295 -0.977674,-0.14756 -0.329882,-0.0244 -0.561472,-0.0369 -0.695793,-0.0369 z m 10.772888,1.27153 c 0,-0.15981 -0.03718,-0.32866 -0.111149,-0.50684 -0.07397,-0.1779 -0.181173,-0.34102 -0.322624,-0.48807 -0.141068,-0.14756 -0.31613,-0.26719 -0.524041,-0.35939 -0.208546,-0.0922 -0.454015,-0.13813 -0.73628,-0.13813 -0.309255,0 -0.57484,0.0459 -0.796502,0.13813 -0.221914,0.0923 -0.409582,0.20864 -0.5644,0.34995 -0.154819,0.1413 -0.272079,0.30111 -0.352925,0.47902 -0.08085,0.17817 -0.141197,0.35315 -0.181556,0.52533 z m 2.82264,2.63437 c -0.14756,0.60184 -0.362728,1.10548 -0.645247,1.51079 -0.281883,0.40518 -0.617875,0.73091 -1.007977,0.97641 -0.389847,0.24589 -0.823621,0.42087 -1.300808,0.52494 -0.47706,0.10445 -0.984424,0.15687 -1.522214,0.15687 -0.833679,0 -1.549334,-0.1167 -2.147728,-0.35021 -0.598396,-0.23326 -1.092135,-0.55861 -1.481856,-0.97654 -0.390102,-0.41755 -0.678859,-0.91176 -0.867289,-1.48299 -0.188049,-0.57111 -0.282138,-1.19437 -0.282138,-1.87006 0,-0.79825 0.113951,-1.48911 0.342741,-2.07258 0.228535,-0.58348 0.54785,-1.06862 0.95794,-1.45557 0.409965,-0.38681 0.907269,-0.67555 1.491913,-0.86571 0.585027,-0.19054 1.233585,-0.28567 1.945929,-0.28567 0.685354,0 1.303993,0.0952 1.855151,0.28567 0.551034,0.19016 1.025293,0.4789 1.421507,0.86571 0.396595,0.38695 0.702286,0.87209 0.917835,1.45557 0.214659,0.58347 0.322241,1.26209 0.322241,2.03572 V 36.546 h -6.47272 c 0,0.55275 0.181427,1.01009 0.544538,1.37268 0.363112,0.36219 0.847048,0.54329 1.451936,0.54329 0.335992,0 0.671984,-0.0798 1.008359,-0.23925 0.335992,-0.15981 0.557908,-0.41794 0.66549,-0.77402 z m 11.236712,-4.25586 -4.77914,4.99302 h 4.8195 v 2.26593 h -8.368236 v -1.78691 l 4.819116,-4.99302 h -4.537234 v -2.26593 h 8.045994 z m 5.89279,-1.78691 v 0.73678 c 0.14794,-0.17218 0.32618,-0.31642 0.53448,-0.43273 0.20829,-0.11683 0.42651,-0.21222 0.65543,-0.28568 0.22803,-0.0737 0.46051,-0.12613 0.69541,-0.15688 0.23567,-0.0303 0.45402,-0.0459 0.65543,-0.0459 1.2905,0 2.31223,0.27 3.06506,0.8105 0.75283,0.54049 1.12893,1.40633 1.12893,2.59789 v 5.82189 h -2.66159 v -5.61913 c 0,-0.44204 -0.1678,-0.78307 -0.50418,-1.02271 -0.33573,-0.23926 -0.75932,-0.3594 -1.26999,-0.3594 -0.26928,0 -0.53092,0.037 -0.78683,0.11071 -0.25514,0.0737 -0.48686,0.17816 -0.69541,0.31335 -0.20829,0.13493 -0.37648,0.30086 -0.50418,0.49751 -0.12783,0.19629 -0.19136,0.41755 -0.19136,0.66306 v 5.41658 h -2.66196 v -9.04586 z m 14.94675,-0.16592 c 0.81993,0 1.5259,0.1135 2.11743,0.3409 0.59152,0.22702 1.08232,0.54331 1.47167,0.94861 0.38985,0.40557 0.67924,0.89658 0.86729,1.47393 0.18805,0.57736 0.28226,1.21606 0.28226,1.91597 0,1.52316 -0.39303,2.69012 -1.17947,3.5006 -0.78644,0.81049 -1.97267,1.21618 -3.55918,1.21618 -1.57289,0 -2.75593,-0.40569 -3.54912,-1.21618 -0.79293,-0.81048 -1.18953,-1.97744 -1.18953,-3.5006 0,-0.69991 0.0942,-1.33861 0.28214,-1.91597 0.18843,-0.57735 0.47719,-1.06836 0.86729,-1.47393 0.38985,-0.4053 0.88066,-0.72159 1.47217,-0.94861 0.59153,-0.2274 1.29699,-0.3409 2.11705,-0.3409 z m 0,2.19221 c -0.36312,0 -0.67198,0.0676 -0.92751,0.20278 -0.25552,0.13518 -0.4642,0.31922 -0.62513,0.55274 -0.16131,0.23327 -0.27896,0.50032 -0.35293,0.80157 -0.074,0.30072 -0.11089,0.61701 -0.11089,0.9486 0,0.33185 0.0369,0.64496 0.11089,0.93956 0.074,0.29499 0.19162,0.55274 0.35293,0.77401 0.16093,0.2209 0.36961,0.39906 0.62513,0.53438 0.25553,0.1348 0.56439,0.2024 0.92751,0.2024 0.36298,0 0.67237,-0.0676 0.92751,-0.2024 0.25553,-0.13532 0.4637,-0.31348 0.62501,-0.53438 0.16169,-0.22127 0.27896,-0.47902 0.35305,-0.77401 0.074,-0.2946 0.11077,-0.60771 0.11077,-0.93956 0,-0.33159 -0.0368,-0.64788 -0.11077,-0.9486 -0.0741,-0.30125 -0.19136,-0.5683 -0.35305,-0.80157 -0.16131,-0.23352 -0.36948,-0.41756 -0.62501,-0.55274 -0.25514,-0.13519 -0.56453,-0.20278 -0.92751,-0.20278 z"
     style="fill:#808080;fill-rule:evenodd;stroke-width:1.27426839"
     id="path3798"
     inkscape:connector-curvature="0" />
  <path
     d="m 134.60764,26.61581 h 4.35567 v 2.1185 h -1.79443 v 12.65703 h 1.79443 v 2.11888 h -4.35567 z"
     style="fill:#808080;fill-rule:evenodd;stroke-width:1.27426839"
     id="path3800"
     inkscape:connector-curvature="0" />
  <path
     d="m 149.81997,41.01295 -3.40804,-4.88233 h -1.41145 v 4.88233 h -2.8229 V 28.24508 h 4.61771 c 0.73907,0 1.42812,0.0799 2.06687,0.23977 0.63837,0.15981 1.18953,0.39906 1.65323,0.71828 0.46381,0.3196 0.82718,0.73104 1.0892,1.23468 0.26202,0.50351 0.39303,1.0931 0.39303,1.76854 0,0.8842 -0.21504,1.62135 -0.64525,2.21096 -0.4302,0.58934 -1.04846,1.01339 -1.85502,1.27114 l 3.64982,5.3245 z m -4.81949,-10.31739 v 3.00308 h 2.21813 c 0.64563,0 1.126,-0.11683 1.44213,-0.34995 0.31576,-0.23352 0.4735,-0.61422 0.4735,-1.14234 0,-0.51589 -0.18118,-0.89659 -0.54453,-1.14208 -0.36275,-0.24589 -0.81969,-0.36871 -1.3711,-0.36871 z"
     style="fill:#808080;fill-rule:evenodd;stroke-width:1.27426839"
     id="path3802"
     inkscape:connector-curvature="0" />
  <path
     d="m 159.73498,43.51022 h -4.35528 v -2.11888 h 1.79467 V 28.73431 h -1.79467 v -2.1185 h 4.35528 z"
     style="fill:#808080;fill-rule:evenodd;stroke-width:1.27426839"
     id="path3804"
     inkscape:connector-curvature="0" />
  <path
     d="m 168.01231,41.98604 c 0.0404,0.20904 0.18844,0.38682 0.44422,0.53437 0.25514,0.14756 0.57752,0.2209 0.96761,0.2209 0.5378,0 0.99792,-0.098 1.38153,-0.29461 0.38297,-0.19666 0.57459,-0.56511 0.57459,-1.10561 v -0.9949 c -0.12134,0.23364 -0.38693,0.42992 -0.7965,0.58973 -0.40996,0.15979 -0.85037,0.23964 -1.32093,0.23964 -0.79293,0 -1.47535,-0.1167 -2.04702,-0.35035 -0.57127,-0.23313 -1.03801,-0.55886 -1.401,-0.97641 -0.36311,-0.41755 -0.63201,-0.91788 -0.80669,-1.50135 -0.17506,-0.58348 -0.26202,-1.21911 -0.26202,-1.90705 0,-0.73677 0.10721,-1.39396 0.32236,-1.97131 0.21543,-0.57698 0.5243,-1.06544 0.92752,-1.46462 0.40347,-0.39906 0.88423,-0.7063 1.44212,-0.92107 0.55754,-0.21515 1.17948,-0.32254 1.86509,-0.32254 0.34936,0 0.72622,0.0705 1.12932,0.21184 0.40308,0.14144 0.73907,0.3594 1.00797,0.654 v -0.68142 h 2.58124 v 9.15656 c 0,0.5896 -0.10758,1.11747 -0.32274,1.5845 -0.21505,0.46678 -0.52111,0.86265 -0.91733,1.18837 -0.39672,0.32535 -0.86372,0.57086 -1.40139,0.73678 -0.53779,0.16592 -1.12931,0.24869 -1.77494,0.24869 -1.35734,0 -2.42629,-0.22127 -3.20587,-0.66344 -0.77957,-0.44203 -1.21665,-1.17881 -1.31086,-2.2107 z m 1.47243,-8.12466 c -0.33637,0 -0.63186,0.0676 -0.88741,0.2024 -0.25514,0.13519 -0.46699,0.3196 -0.63517,0.55274 -0.16819,0.23352 -0.29564,0.50976 -0.38298,0.82897 -0.0873,0.31961 -0.1314,0.6572 -0.1314,1.0134 0,0.35634 0.0441,0.69086 0.1314,1.00422 0.0873,0.3131 0.21835,0.58348 0.39302,0.81049 0.17468,0.2274 0.39012,0.40531 0.64538,0.53437 0.2554,0.12907 0.55104,0.19347 0.88741,0.19347 0.33599,0 0.62832,-0.0738 0.87658,-0.22088 0.24904,-0.14756 0.44715,-0.3409 0.59522,-0.58067 0.14794,-0.23926 0.25871,-0.51257 0.33268,-0.81993 0.074,-0.30685 0.11076,-0.61383 0.11076,-0.92107 0,-0.30697 -0.0368,-0.61395 -0.11076,-0.92119 -0.074,-0.30697 -0.18804,-0.5864 -0.34286,-0.83841 -0.15445,-0.25163 -0.35293,-0.45442 -0.59472,-0.60772 -0.24215,-0.15355 -0.53779,-0.23019 -0.88715,-0.23019 z m 8.96307,0.69978 c 0,-0.38056 0.1007,-0.74289 0.302,-1.0866 0.20219,-0.34422 0.48407,-0.63883 0.84742,-0.88471 0.36273,-0.24551 0.78963,-0.44217 1.28045,-0.58922 0.49056,-0.14756 1.03152,-0.22127 1.62305,-0.22127 0.76658,0 1.40496,0.0922 1.91601,0.27624 0.51067,0.18428 0.92064,0.44242 1.22951,0.77401 0.30938,0.33146 0.53091,0.73384 0.66562,1.20675 0.13457,0.47277 0.20166,0.99158 0.20166,1.5567 v 4.05334 c 0,0.55274 0.0203,0.92106 0.0606,1.10509 0.013,0.12295 0.0332,0.20279 0.0604,0.23964 h -2.2986 c -0.0271,-0.0491 -0.0537,-0.12281 -0.0808,-0.22115 -0.0405,-0.15941 -0.0606,-0.47901 -0.0606,-0.95804 -0.0401,0.0737 -0.13432,0.18761 -0.28188,0.3409 -0.14795,0.15368 -0.33969,0.30405 -0.57497,0.45148 -0.2349,0.14717 -0.51105,0.27956 -0.82681,0.39587 -0.31613,0.11683 -0.65543,0.17537 -1.01841,0.17537 -0.47032,0 -0.92063,-0.0524 -1.35085,-0.15688 -0.43021,-0.10407 -0.80669,-0.27624 -1.12931,-0.5155 -0.32262,-0.23976 -0.58147,-0.54381 -0.77625,-0.91213 -0.19493,-0.36846 -0.29233,-0.82286 -0.29233,-1.36336 0,-0.49127 0.10746,-0.90882 0.32262,-1.25292 0.21505,-0.34383 0.49731,-0.62619 0.84706,-0.84746 0.34935,-0.22128 0.756,-0.38389 1.21983,-0.48808 0.46369,-0.10445 0.94444,-0.16911 1.44175,-0.19374 l 2.09718,-0.0919 v -0.20278 c 0,-0.76139 -0.45071,-1.14247 -1.35123,-1.14247 -0.33599,0 -0.60476,0.0341 -0.80656,0.10165 -0.20179,0.0676 -0.36985,0.21796 -0.5038,0.45109 z m 3.46827,4.56935 c 0.24179,0 0.47707,-0.0431 0.70547,-0.12907 0.22878,-0.086 0.43708,-0.19639 0.62551,-0.33158 0.18767,-0.13519 0.33918,-0.295 0.45326,-0.47903 0.11446,-0.18428 0.17175,-0.38069 0.17175,-0.5896 v -0.33146 l -1.95599,0.0737 c -0.45733,0.0242 -0.78644,0.12256 -0.98824,0.29462 -0.20129,0.17204 -0.30238,0.38069 -0.30238,0.62658 0,0.57697 0.43021,0.86583 1.29062,0.86583 z m 11.14059,-7.18523 v 0.73678 c 0.14794,-0.17206 0.32593,-0.31629 0.53447,-0.43273 0.2083,-0.11683 0.42665,-0.21222 0.65544,-0.28556 0.22816,-0.0738 0.46051,-0.12625 0.69541,-0.157 0.23542,-0.0303 0.45376,-0.0459 0.65544,-0.0459 1.29061,0 2.31235,0.27013 3.06517,0.81062 0.75246,0.54037 1.12894,1.40621 1.12894,2.59777 v 5.82188 h -2.66171 v -5.61896 c 0,-0.44218 -0.1678,-0.78308 -0.50419,-1.02285 -0.33599,-0.23925 -0.75932,-0.35926 -1.26999,-0.35926 -0.26928,0 -0.53129,0.0369 -0.78684,0.11057 -0.25514,0.0737 -0.48711,0.1783 -0.6954,0.31348 -0.20828,0.13481 -0.37635,0.30074 -0.50418,0.49739 -0.12769,0.19629 -0.19162,0.41756 -0.19162,0.66306 v 5.41657 h -2.66171 v -9.04585 z m 11.12046,9.04585 v -9.04585 h 2.66171 v 9.04585 z m -0.0606,-10.72256 V 28.021 h 2.76268 v 2.24757 z m 14.85076,3.46374 -4.77915,4.99289 h 4.81951 v 2.26593 h -8.36824 v -1.7869 l 4.8195,-4.99289 h -4.53724 v -2.26606 h 8.04562 z m 9.74978,1.62136 c 0,-0.1598 -0.0376,-0.32865 -0.11154,-0.50683 -0.074,-0.17791 -0.18117,-0.3409 -0.32223,-0.48807 -0.14121,-0.14743 -0.31627,-0.2672 -0.52443,-0.3594 -0.20867,-0.0921 -0.45363,-0.13799 -0.7359,-0.13799 -0.30926,0 -0.57499,0.0459 -0.79651,0.13799 -0.22193,0.0922 -0.40998,0.20865 -0.56453,0.34995 -0.15482,0.14144 -0.27247,0.30125 -0.35293,0.47903 -0.0808,0.1783 -0.14145,0.35327 -0.18182,0.52532 z m 2.82263,2.63438 c -0.14769,0.60197 -0.36272,1.10548 -0.64537,1.51079 -0.28227,0.40531 -0.61826,0.73103 -1.00837,0.97641 -0.38971,0.24589 -0.82322,0.42087 -1.30029,0.52494 -0.47744,0.10457 -0.98455,0.15699 -1.52234,0.15699 -0.83369,0 -1.54973,-0.11682 -2.14775,-0.35033 -0.59827,-0.23327 -1.092,-0.55861 -1.48185,-0.97655 -0.3901,-0.41754 -0.67885,-0.91175 -0.86716,-1.48285 -0.18805,-0.57124 -0.28227,-1.1945 -0.28227,-1.87018 0,-0.79826 0.11408,-1.48912 0.34248,-2.07259 0.2288,-0.58348 0.54824,-1.06863 0.9582,-1.45544 0.40997,-0.38682 0.90727,-0.67568 1.49205,-0.86584 0.5849,-0.19054 1.2332,-0.28568 1.94594,-0.28568 0.68535,0 1.30399,0.0952 1.85503,0.28568 0.55116,0.19016 1.0249,0.47902 1.42163,0.86584 0.39659,0.38681 0.70228,0.87196 0.91732,1.45544 0.21517,0.58347 0.32275,1.26209 0.32275,2.03572 v 0.64495 h -6.47286 c 0,0.55275 0.18156,1.01009 0.54429,1.37267 0.36335,0.3622 0.84704,0.54342 1.4522,0.54342 0.33599,0 0.67173,-0.0799 1.0081,-0.23937 0.33599,-0.15981 0.55792,-0.41794 0.6655,-0.77402 z m 8.31795,-3.90578 c -0.60515,0 -1.06858,0.15355 -1.39159,0.46053 -0.32263,0.30724 -0.48396,0.83549 -0.48396,1.58451 v 4.86382 h -2.64146 v -9.04585 h 2.54037 v 0.69991 c 0.16171,-0.15942 0.35662,-0.30697 0.58504,-0.44216 0.18843,-0.11057 0.41365,-0.21184 0.67528,-0.30405 0.26228,-0.0922 0.54824,-0.13812 0.85712,-0.13812 0.16131,0 0.4003,0.006 0.71564,0.0185 0.31614,0.0127 0.58861,0.0491 0.81675,0.11057 v 2.37663 c -0.32224,-0.0737 -0.64853,-0.12295 -0.97767,-0.14743 -0.32948,-0.0246 -0.56158,-0.0369 -0.69552,-0.0369 z"
     style="fill:#ff6600;fill-rule:evenodd;stroke-width:1.27426839"
     id="path3806"
     inkscape:connector-curvature="0" />
</svg>
