<?xml version="1.0" encoding="UTF-8" standalone="no"?>
<svg
   xmlns:dc="http://purl.org/dc/elements/1.1/"
   xmlns:cc="http://creativecommons.org/ns#"
   xmlns:rdf="http://www.w3.org/1999/02/22-rdf-syntax-ns#"
   xmlns:svg="http://www.w3.org/2000/svg"
   xmlns="http://www.w3.org/2000/svg"
   xmlns:sodipodi="http://sodipodi.sourceforge.net/DTD/sodipodi-0.dtd"
   xmlns:inkscape="http://www.inkscape.org/namespaces/inkscape"
   version="1.1"
   width="59.455666"
   height="63.961956"
   id="svg3808"
   viewBox="0 0 59.455666 63.961955"
   sodipodi:docname="reznorganizer-icon.svg"
   inkscape:version="0.92.4 (5da689c313, 2019-01-14)">
  <metadata
     id="metadata3814">
    <rdf:RDF>
      <cc:Work
         rdf:about="">
        <dc:format>image/svg+xml</dc:format>
        <dc:type
           rdf:resource="http://purl.org/dc/dcmitype/StillImage" />
        <dc:title></dc:title>
      </cc:Work>
    </rdf:RDF>
  </metadata>
  <defs
     id="defs3812" />
  <sodipodi:namedview
     pagecolor="#ffffff"
     bordercolor="#666666"
     borderopacity="1"
     objecttolerance="10"
     gridtolerance="10"
     guidetolerance="10"
     inkscape:pageopacity="0"
     inkscape:pageshadow="2"
     inkscape:window-width="1920"
     inkscape:window-height="1021"
     id="namedview3810"
     showgrid="false"
     inkscape:zoom="4.4851478"
     inkscape:cx="143.81426"
     inkscape:cy="59.712347"
     inkscape:window-x="-4"
     inkscape:window-y="-4"
     inkscape:window-maximized="1"
     inkscape:current-layer="svg3808"
     fit-margin-top="0"
     fit-margin-left="0"
     fit-margin-right="0"
     fit-margin-bottom="0" />
  <path
     d="M -8.879458,-0.90778123 H 245.12054 V 65.092219 H -8.879458 Z"
     style="fill:none;stroke-width:1.27426839"
     id="path3780"
     inkscape:connector-curvature="0" />
  <path
     d="M 57.4922,12.389349 12.870919,3.0186588 c -1.463012,-0.30723 -2.790303,0.56154 -3.097011,2.02705 L 0.06145158,51.453039 c -0.3067089,1.46551 0.5605804,2.79507 2.02359242,3.1023 l 44.499437,9.34506 c 1.463012,0.30723 2.790303,-0.56154 3.097012,-2.02705 l 9.712456,-46.40733 c 0.306582,-1.46551 -0.560581,-2.79507 -1.901749,-3.07667 z"
     style="fill:#ff6600;fill-rule:evenodd;stroke-width:1.27426839"
     id="path3782"
     inkscape:connector-curvature="0" />
  <path
     d="m 55.134652,16.356479 -8.715684,41.6445 c -0.204473,0.97692 -1.089333,1.55619 -2.064716,1.35136 l -29.869449,-6.27272 -7.99761,-12.2614 6.952075,-33.2179702 c 0.204472,-0.97691 1.089332,-1.55618 2.064715,-1.35123 L 53.90756,14.313859 c 0.827822,0.30137 1.405973,1.18762 1.227092,2.04262 z"
     style="fill:#f2f2f2;fill-rule:evenodd;stroke-width:1.27426839"
     id="path3784"
     inkscape:connector-curvature="0" />
  <path
     d="m 16.095121,45.385779 c 0.306709,-1.46551 -0.560453,-2.79507 -2.023465,-3.1023 l -7.558872,-1.58744 7.99761,12.26154 c 1.27e-4,-1.3e-4 1.584727,-7.5718 1.584727,-7.5718 z"
     style="fill:#cccccc;fill-rule:evenodd;stroke-width:1.27426839"
     id="path3786"
     inkscape:connector-curvature="0" />
  <path
     d="m 46.503889,6.5119988 -2.804053,-0.58897 c -0.116114,-0.66178 -0.450323,-1.49702 -0.957685,-2.11339 -0.867164,-1.32969 -2.298728,-2.39513 -4.005553,-2.75363 L 34.347689,0.13430877 c -2.560365,-0.53769 -5.087119,0.58909 -6.374941,2.48606003 l -2.804052,-0.58896 c -1.341169,-0.2816 -2.668459,0.58717 -2.949577,1.9305 l -0.996772,4.76283 c -0.28112,1.3434702 0.586044,2.6728902 1.927085,2.9546202 l 21.213477,4.45482 c 1.34104,0.28173 2.668331,-0.58704 2.94945,-1.93037 l 0.996772,-4.7629602 c 0.403089,-1.31769 -0.464073,-2.64725 -1.805242,-2.92885 z m -11.24562,0.82553 c -1.341042,-0.2816 -2.208204,-1.61116 -1.927086,-2.95449 0.281118,-1.34333 1.608408,-2.2121 2.94945,-1.93051 1.341167,0.28173 2.208331,1.61129 1.927213,2.95462 -0.281247,1.34333 -1.608409,2.21211 -2.949577,1.93038 z"
     style="fill:#808080;fill-rule:evenodd;stroke-width:1.27426839"
     id="path3788"
     inkscape:connector-curvature="0" />
  <path
     d="m 36.56506,43.054929 -2.697996,-4.13636 c 1.622286,-1.06174 2.711493,-2.6178 3.120438,-4.5719 0.07677,-0.36641 0.153418,-0.73269 0.10822,-1.12474 l 4.907983,0.26578 c -0.08632,4.0615 -2.046637,7.34708 -5.438645,9.56722 z"
     style="fill:#808080;fill-rule:evenodd;stroke-width:1.27426839"
     id="path3790"
     inkscape:connector-curvature="0" />
  <path
     d="m 42.029296,33.365529 -4.81173,-0.11797 c 0.119934,-2.39728 -0.934132,-4.65836 -2.680299,-6.04519 l 3.08899,-3.81345 c 3.055887,2.42676 4.611458,5.94062 4.403039,9.97661 z"
     style="fill:#b3b3b3;fill-rule:evenodd;stroke-width:1.27426839"
     id="path3792"
     inkscape:connector-curvature="0" />
  <path
     d="m 37.504286,23.363289 -3.08899,3.81358 c -0.87302,-0.69341 -1.919193,-1.16797 -3.138389,-1.42407 -1.219071,-0.25596 -2.36748,-0.24219 -3.444973,0.0415 l -1.299917,-4.73514 c 4.04082,-1.06378 7.820129,-0.27012 10.972269,2.30418 z"
     style="fill:#e6e6e6;fill-rule:evenodd;stroke-width:1.27426839"
     id="path3794"
     inkscape:connector-curvature="0" />
  <path
     d="m 36.56506,43.054929 c -5.604029,3.6678 -13.162901,2.08037 -16.824442,-3.53325 -3.661539,-5.61361 -2.076811,-13.18541 3.52722,-16.85321 1.179729,-0.77209 2.160969,-1.20355 3.507867,-1.5581 l 1.299917,4.73515 c -2.57208,0.73473 -4.642526,2.72225 -5.23048,5.53123 -0.817892,3.90794 1.661883,7.87099 5.685132,8.71592 1.950512,0.40964 3.958317,-0.0612 5.433042,-1.02642 z"
     style="fill:#ff6600;fill-rule:evenodd;stroke-width:1.27426839"
     id="path3796"
     inkscape:connector-curvature="0" />
</svg>
